<?xml version="1.0" encoding="UTF-8" standalone="no"?>
<svg
   xmlns:dc="http://purl.org/dc/elements/1.1/"
   xmlns:cc="http://creativecommons.org/ns#"
   xmlns:rdf="http://www.w3.org/1999/02/22-rdf-syntax-ns#"
   xmlns:svg="http://www.w3.org/2000/svg"
   xmlns="http://www.w3.org/2000/svg"
   xmlns:sodipodi="http://sodipodi.sourceforge.net/DTD/sodipodi-0.dtd"
   xmlns:inkscape="http://www.inkscape.org/namespaces/inkscape"
   inkscape:version="1.0 (4035a4fb49, 2020-05-01)"
   sodipodi:docname="mysql-official.svg"
   id="svg14"
   version="1.1"
   viewBox="0 0 94.4 49.303985"
   height="62"
   width="118">
  <metadata
     id="metadata20">
    <rdf:RDF>
      <cc:Work
         rdf:about="">
        <dc:format>image/svg+xml</dc:format>
        <dc:type
           rdf:resource="http://purl.org/dc/dcmitype/StillImage" />
        <dc:title></dc:title>
      </cc:Work>
    </rdf:RDF>
  </metadata>
  <defs
     id="defs18" />
  <sodipodi:namedview
     inkscape:current-layer="svg14"
     inkscape:window-maximized="1"
     inkscape:window-y="-8"
     inkscape:window-x="-8"
     inkscape:cy="66.5"
     inkscape:cx="128"
     inkscape:zoom="4.0976562"
     showgrid="false"
     id="namedview16"
     inkscape:window-height="1017"
     inkscape:window-width="1920"
     inkscape:pageshadow="2"
     inkscape:pageopacity="0"
     guidetolerance="10"
     gridtolerance="10"
     objecttolerance="10"
     borderopacity="1"
     bordercolor="#666666"
     pagecolor="#ffffff" />
  <path
     style="stroke-width:0.383445"
     id="path2"
     fill="#00618a"
     d="M 9.7616778,41.431096 H 12.348782 V 31.218419 l 4.005083,8.906277 c 0.472405,1.073647 1.11966,1.459393 2.388096,1.459393 1.268436,0 1.890384,-0.381528 2.363555,-1.459393 l 4.005467,-8.906277 V 41.434926 H 27.69847 V 31.23529 c 0,-0.99504 -0.398782,-1.476263 -1.219355,-1.724736 -1.965156,-0.613512 -3.283823,-0.08282 -3.880464,1.243896 l -3.930312,8.78971 -3.806842,-8.793545 c -0.5721,-1.32672 -1.915308,-1.857408 -3.880464,-1.243896 -0.821339,0.248857 -1.2193552,0.73008 -1.2193552,1.724736 z M 29.84883,33.115704 h 2.586337 v 5.628973 c -0.02415,0.30599 0.09816,1.023799 1.515375,1.045655 0.723177,0.0115 5.580659,0 5.625906,0 v -6.702619 h 2.592088 c 0.0115,0 -0.0027,9.139027 -0.0023,9.178143 0.01419,2.253886 -2.796848,2.743545 -4.092126,2.781508 h -8.168882 v -1.740842 l 8.183484,-3.84e-4 c 1.664887,-0.176384 1.468563,-1.003471 1.468563,-1.282235 v -0.678701 h -5.498602 c -2.558345,-0.02301 -4.187219,-1.139982 -4.207542,-2.424523 -0.0019,-0.115034 0.05522,-5.749758 -0.0015,-5.805358 z" />
  <path
     style="stroke-width:0.383445"
     id="path4"
     fill="#e48e00"
     d="m 44.162834,41.431096 h 7.438067 c 0.87042,0 1.716683,-0.182139 2.388862,-0.497714 1.11966,-0.513816 1.666836,-1.210536 1.666836,-2.122752 v -1.890384 c 0,-0.746567 -0.621948,-1.442903 -1.840536,-1.907256 -0.646872,-0.249239 -1.442904,-0.381527 -2.214012,-0.381527 h -3.134663 c -1.044505,0 -1.542216,-0.315192 -1.666452,-1.011528 -0.02492,-0.08282 -0.02492,-0.153378 -0.02492,-0.232368 v -1.177176 c 0,-0.06634 0,-0.133056 0.02492,-0.21588 0.124236,-0.530688 0.398016,-0.680232 1.318284,-0.76689 0.07477,0 0.174084,-0.01687 0.249239,-0.01687 h 7.388219 v -1.724354 h -7.263983 c -1.044887,0 -1.592064,0.06634 -2.089775,0.215496 -1.54375,0.481224 -2.215546,1.248114 -2.215546,2.574834 v 1.509239 c 0,1.161072 1.319051,2.156112 3.532296,2.388096 0.249239,0.01649 0.497712,0.03297 0.746184,0.03297 h 2.686799 c 0.0997,0 0.199392,0 0.27378,0.01687 0.820573,0.06634 1.169508,0.215496 1.41798,0.513816 0.153378,0.153378 0.199392,0.299088 0.199392,0.460134 v 1.50924 c 0,0.18252 -0.124236,0.414888 -0.373093,0.613512 -0.223931,0.199391 -0.597023,0.33168 -1.094735,0.36504 -0.0997,0 -0.174084,0.01649 -0.273396,0.01649 h -7.139747 v 1.724733 z m 27.632587,-3.00161 c 0,1.774584 1.318276,2.769623 3.980155,2.968631 a 11.292457,11.292457 0 0 0 0.746184,0.03298 h 6.741731 V 39.70636 h -6.791582 c -1.51729,0 -2.089773,-0.381527 -2.089773,-1.293743 v -8.922769 h -2.5871 v 8.938871 z m -14.488474,0.08973 v -6.148541 c 0,-1.562155 1.096653,-2.509648 3.265418,-2.808735 a 4.9617789,4.9617789 0 0 1 0.698253,-0.04984 h 4.910781 a 5.3183828,5.3183828 0 0 1 0.723177,0.04984 c 2.168766,0.299087 3.265418,1.246196 3.265418,2.808735 v 6.148541 c 0,1.267286 -0.465886,1.9456 -1.539531,2.387712 l 2.548375,2.300671 H 68.17493 l -2.061784,-1.861243 -2.075589,0.131521 h -2.766939 c -0.473555,0 -0.972033,-0.06672 -1.520743,-0.216262 -1.648814,-0.44863 -2.442545,-1.312916 -2.442545,-2.742399 z m 2.79263,-0.153378 c 0,0.08321 0.02492,0.166032 0.04985,0.266111 0.153378,0.714742 0.822489,1.113525 1.840536,1.113525 h 2.350519 l -2.158796,-1.949052 h 3.003908 l 1.878881,1.699812 c 0.347017,-0.18482 0.575167,-0.467803 0.651856,-0.830925 0.02492,-0.08282 0.02492,-0.166032 0.02492,-0.24924 v -5.895467 c 0,-0.06634 0,-0.153379 -0.02492,-0.232751 -0.153377,-0.664511 -0.822873,-1.046806 -1.81983,-1.046806 h -3.901936 c -1.150335,0 -1.894219,0.498479 -1.894219,1.279557 v 5.849837 z" />
  <g
     transform="matrix(0.38344505,0,0,0.38344505,9.7616778,4.4922993)"
     id="g10"
     fill="#00618a">
    <path
       id="path6"
       d="m 197.624,57.73 c -4.147,-0.112 -7.316,0.273 -10.024,1.415 -0.77,0.325 -1.997,0.333 -2.123,1.298 0.423,0.443 0.49,1.105 0.825,1.65 0.647,1.047 1.74,2.45 2.713,3.184 1.064,0.803 2.16,1.663 3.303,2.36 2.03,1.238 4.296,1.945 6.25,3.184 1.152,0.73 2.296,1.65 3.42,2.476 0.555,0.408 0.93,1.042 1.65,1.297 v -0.118 c -0.38,-0.483 -0.477,-1.147 -0.825,-1.65 l -1.533,-1.533 c -1.5,-2 -3.402,-3.737 -5.425,-5.19 -1.613,-1.158 -5.224,-2.722 -5.897,-4.6 l -0.118,-0.118 c 1.144,-0.13 2.483,-0.543 3.54,-0.825 1.773,-0.475 3.358,-0.353 5.19,-0.825 l 2.477,-0.708 v -0.472 c -0.926,-0.95 -1.586,-2.207 -2.595,-3.066 -2.64,-2.25 -5.523,-4.495 -8.49,-6.37 -1.646,-1.04 -3.68,-1.714 -5.425,-2.595 -0.587,-0.296 -1.618,-0.45 -2.005,-0.944 -0.916,-1.168 -1.415,-2.65 -2.122,-4 -1.48,-2.85 -2.934,-5.964 -4.246,-8.963 -0.895,-2.045 -1.48,-4.062 -2.594,-5.897 -5.355,-8.804 -11.12,-14.118 -20.048,-19.34 -1.9,-1.11 -4.187,-1.55 -6.605,-2.123 l -3.892,-0.236 c -0.792,-0.33 -1.616,-1.3 -2.36,-1.77 -2.958,-1.87 -10.545,-5.933 -12.736,-0.6 -1.383,3.373 2.067,6.664 3.302,8.374 0.866,1.2 1.976,2.543 2.594,3.892 0.407,0.886 0.478,1.775 0.826,2.713 0.857,2.3 1.603,4.823 2.712,6.958 0.56,1.08 1.178,2.218 1.887,3.184 0.435,0.593 1.18,0.854 1.297,1.77 -0.728,1.02 -0.77,2.6 -1.18,3.892 -1.843,5.812 -1.148,13.035 1.533,17.337 0.823,1.32 2.76,4.152 5.425,3.066 2.33,-0.95 1.8,-3.89 2.477,-6.486 0.15,-0.59 0.058,-1.02 0.354,-1.415 v 0.118 l 2.123,4.245 c 1.57,2.53 4.36,5.175 6.722,6.96 1.225,0.925 2.2,2.525 3.774,3.066 v -0.118 h -0.118 c -0.307,-0.48 -0.787,-0.677 -1.18,-1.06 -0.923,-0.905 -1.95,-2.03 -2.713,-3.066 -2.15,-2.918 -4.048,-6.11 -5.778,-9.435 -0.826,-1.587 -1.545,-3.338 -2.24,-4.953 -0.268,-0.623 -0.265,-1.564 -0.825,-1.887 -0.763,1.184 -1.887,2.14 -2.477,3.538 -0.944,2.234 -1.066,4.958 -1.415,7.784 -0.207,0.074 -0.115,0.023 -0.236,0.118 -1.642,-0.396 -2.22,-2.087 -2.83,-3.538 -1.544,-3.67 -1.83,-9.576 -0.472,-13.798 0.35,-1.092 1.94,-4.534 1.297,-5.543 -0.307,-1.007 -1.32,-1.6 -1.887,-2.36 -0.7,-0.95 -1.402,-2.204 -1.887,-3.302 -1.264,-2.86 -1.854,-6.07 -3.184,-8.963 -0.636,-1.382 -1.71,-2.78 -2.594,-4 -0.978,-1.36 -2.073,-2.364 -2.83,-4 -0.27,-0.585 -0.636,-1.52 -0.236,-2.123 a 0.93,0.93 0 0 1 0.708,-0.708 c 0.684,-0.527 2.59,0.175 3.302,0.472 1.89,0.786 3.47,1.534 5.072,2.595 0.77,0.5 1.547,1.496 2.476,1.77 h 1.06 c 1.66,0.382 3.52,0.12 5.07,0.59 2.742,0.833 5.198,2.13 7.43,3.538 6.798,4.292 12.355,10.402 16.157,17.7 0.612,1.173 0.876,2.294 1.415,3.538 1.087,2.5 2.456,5.093 3.538,7.547 1.08,2.45 2.13,4.92 3.656,6.958 0.802,1.07 3.9,1.646 5.307,2.24 0.987,0.417 2.603,0.852 3.538,1.415 1.785,1.077 3.515,2.36 5.19,3.54 0.837,0.59 3.41,1.883 3.538,2.948 z" />
    <path
       id="path8"
       fill-rule="evenodd"
       d="m 144.91,12.798 c -0.865,-0.016 -1.476,0.094 -2.123,0.236 v 0.118 h 0.118 c 0.412,0.848 1.14,1.393 1.65,2.123 l 1.18,2.476 0.118,-0.118 c 0.73,-0.515 1.065,-1.338 1.06,-2.595 -0.293,-0.308 -0.336,-0.694 -0.59,-1.062 -0.337,-0.49 -1,-0.768 -1.415,-1.18 z" />
  </g>
  <path
     style="stroke-width:0.383445"
     id="path12"
     fill-rule="evenodd"
     fill="#e48e00"
     d="m 84.477864,39.657277 c 0,1.138832 0.899945,1.906488 1.906485,1.906488 1.006545,0 1.906491,-0.767656 1.906491,-1.906488 0,-1.138832 -0.899946,-1.906489 -1.906491,-1.906489 -1.00654,0 -1.906485,0.767657 -1.906485,1.906489 z m 3.385818,0 c 0,0.864285 -0.660676,1.510007 -1.480102,1.510007 -0.82824,0 -1.480096,-0.645722 -1.480096,-1.510007 0,-0.864285 0.651087,-1.510007 1.480096,-1.510007 0.818658,0 1.480102,0.645722 1.480102,1.510007 z m -0.966283,1.088217 h 0.426773 L 86.69916,39.789949 c 0.335513,-0.03566 0.589355,-0.198625 0.589355,-0.595107 0,-0.442496 -0.279917,-0.625015 -0.818274,-0.625015 h -0.849332 v 2.17605 h 0.366194 v -0.94059 h 0.340496 l 0.569416,0.94059 z m -0.910296,-1.246196 v -0.625016 h 0.42179 c 0.218562,0 0.483138,0.04065 0.483138,0.295253 0,0.304838 -0.238885,0.330529 -0.513819,0.330529 h -0.391109 z" />
</svg>
