<?xml version="1.0" encoding="UTF-8" standalone="no"?>
<svg
   xmlns:dc="http://purl.org/dc/elements/1.1/"
   xmlns:cc="http://creativecommons.org/ns#"
   xmlns:rdf="http://www.w3.org/1999/02/22-rdf-syntax-ns#"
   xmlns:svg="http://www.w3.org/2000/svg"
   xmlns="http://www.w3.org/2000/svg"
   xmlns:xlink="http://www.w3.org/1999/xlink"
   xmlns:sodipodi="http://sodipodi.sourceforge.net/DTD/sodipodi-0.dtd"
   xmlns:inkscape="http://www.inkscape.org/namespaces/inkscape"
   inkscape:version="1.0 (4035a4fb49, 2020-05-01)"
   height="62"
   width="62"
   sodipodi:docname="nginx-icon.svg"
   id="svg11"
   version="1.1"
   stroke-linejoin="round"
   stroke-linecap="round"
   stroke="#000000"
   fill-rule="evenodd"
   fill="#ffffff"
   viewBox="0 0 62 62">
  <metadata
     id="metadata17">
    <rdf:RDF>
      <cc:Work
         rdf:about="">
        <dc:format>image/svg+xml</dc:format>
        <dc:type
           rdf:resource="http://purl.org/dc/dcmitype/StillImage" />
        <dc:title></dc:title>
      </cc:Work>
    </rdf:RDF>
  </metadata>
  <defs
     id="defs15" />
  <sodipodi:namedview
     inkscape:current-layer="svg11"
     inkscape:window-maximized="1"
     inkscape:window-y="-8"
     inkscape:window-x="-8"
     inkscape:cy="24.953446"
     inkscape:cx="28.049709"
     inkscape:zoom="4.5533391"
     showgrid="false"
     id="namedview13"
     inkscape:window-height="1017"
     inkscape:window-width="1920"
     inkscape:pageshadow="2"
     inkscape:pageopacity="0"
     guidetolerance="10"
     gridtolerance="10"
     objecttolerance="10"
     borderopacity="1"
     bordercolor="#666666"
     pagecolor="#ffffff" />
  <use
     height="100%"
     width="100%"
     transform="matrix(0.93312468,0,0,0.93312468,3.9003731,-0.18319293)"
     id="use2"
     y="1"
     x="1"
     xlink:href="#A" />
  <symbol
     overflow="visible"
     id="A">
    <g
       id="g8"
       fill-rule="nonzero"
       stroke="none">
      <path
         id="path4"
         fill="#009438"
         d="M 0.002,32.046 V 16.772 A 1.36,1.36 0 0 1 0.772,15.47 L 27.118,0.254 c 0.474,-0.296 1.006,-0.356 1.48,-0.06 l 26.464,15.274 a 1.42,1.42 0 0 1 0.71,1.302 v 30.49 a 1.42,1.42 0 0 1 -0.71,1.302 l -22.734,13.14 -3.612,2.072 a 1.55,1.55 0 0 1 -1.6,0 L 0.712,48.558 C 0.238,48.262 0.002,47.906 0.002,47.314 V 32.04 Z" />
      <path
         id="path6"
         fill="#fefefe"
         d="m 18.65,26.36 v 17.8 c 0,2.012 -1.6,3.788 -3.73,3.73 -1.3,-0.06 -2.308,-0.592 -3,-1.716 -0.356,-0.532 -0.474,-1.124 -0.474,-1.776 V 19.672 c 0,-1.66 1.006,-2.84 2.308,-3.374 1.302,-0.534 2.604,-0.414 3.908,0 1.244,0.356 2.19,1.124 3,2.072 L 36.41,37.256 c 0.06,0.06 0.12,0.2 0.236,0.296 v -18 c 0,-1.894 1.3,-3.374 3.14,-3.552 2.308,-0.296 3.848,1.36 4.084,3.08 v 25.2 c 0,1.4 -0.652,2.428 -1.836,3.08 -0.888,0.474 -1.836,0.592 -2.84,0.532 A 6.46,6.46 0 0 1 35.286,46.234 C 34.694,45.702 34.28,45.05 33.746,44.458 l -15,-17.94 c 0,-0.06 -0.06,-0.12 -0.12,-0.2 z" />
    </g>
  </symbol>
</svg>
